<mxfile host="65bd71144e">
    <diagram id="fuPt0TNouh4u2yFnCRwS" name="Page-1">
        <mxGraphModel dx="1300" dy="675" grid="1" gridSize="10" guides="1" tooltips="1" connect="1" arrows="1" fold="1" page="1" pageScale="1" pageWidth="850" pageHeight="1100" math="0" shadow="0">
            <root>
                <mxCell id="0"/>
                <mxCell id="1" parent="0"/>
                <mxCell id="34" value="" style="rounded=0;whiteSpace=wrap;html=1;fillColor=#3399FF;strokeColor=#6c8ebf;opacity=12;fillStyle=solid;gradientDirection=south;gradientColor=#FF3399;perimeterSpacing=1;" parent="1" vertex="1">
                    <mxGeometry x="57.5" y="260" width="900" height="400" as="geometry"/>
                </mxCell>
                <mxCell id="45" value="" style="shape=step;perimeter=stepPerimeter;whiteSpace=wrap;html=1;fixedSize=1;fillColor=none;strokeWidth=2;strokeColor=default;" vertex="1" parent="1">
                    <mxGeometry x="105" y="420" width="105" height="80" as="geometry"/>
                </mxCell>
                <mxCell id="46" value="" style="shape=step;perimeter=stepPerimeter;whiteSpace=wrap;html=1;fixedSize=1;fillColor=none;strokeWidth=2;strokeColor=default;" vertex="1" parent="1">
                    <mxGeometry x="195" y="420" width="165" height="80" as="geometry"/>
                </mxCell>
                <mxCell id="47" value="" style="shape=step;perimeter=stepPerimeter;whiteSpace=wrap;html=1;fixedSize=1;fillColor=none;strokeWidth=2;strokeColor=default;" vertex="1" parent="1">
                    <mxGeometry x="345" y="420" width="117" height="80" as="geometry"/>
                </mxCell>
                <mxCell id="49" value="" style="shape=step;perimeter=stepPerimeter;whiteSpace=wrap;html=1;fixedSize=1;fillColor=none;strokeWidth=2;strokeColor=default;" vertex="1" parent="1">
                    <mxGeometry x="447" y="420" width="105" height="80" as="geometry"/>
                </mxCell>
                <mxCell id="50" value="" style="shape=step;perimeter=stepPerimeter;whiteSpace=wrap;html=1;fixedSize=1;fillColor=none;strokeWidth=2;strokeColor=default;" vertex="1" parent="1">
                    <mxGeometry x="537" y="420" width="205" height="80" as="geometry"/>
                </mxCell>
                <mxCell id="51" value="" style="shape=step;perimeter=stepPerimeter;whiteSpace=wrap;html=1;fixedSize=1;fillColor=none;strokeWidth=2;strokeColor=default;" vertex="1" parent="1">
                    <mxGeometry x="727" y="420" width="97.56" height="80" as="geometry"/>
                </mxCell>
                <mxCell id="52" value="" style="shape=step;perimeter=stepPerimeter;whiteSpace=wrap;html=1;fixedSize=1;fillColor=none;strokeWidth=2;strokeColor=default;" vertex="1" parent="1">
                    <mxGeometry x="810" y="420" width="105" height="80" as="geometry"/>
                </mxCell>
                <mxCell id="9" value="&lt;h1&gt;&lt;font face=&quot;Times New Roman&quot;&gt;2016&lt;/font&gt;&lt;/h1&gt;" style="text;html=1;align=center;verticalAlign=middle;whiteSpace=wrap;rounded=0;" parent="1" vertex="1">
                    <mxGeometry x="133" y="445" width="60" height="30" as="geometry"/>
                </mxCell>
                <mxCell id="10" value="&lt;h1&gt;&lt;font face=&quot;Times New Roman&quot;&gt;2017&lt;/font&gt;&lt;/h1&gt;" style="text;html=1;align=center;verticalAlign=middle;whiteSpace=wrap;rounded=0;" parent="1" vertex="1">
                    <mxGeometry x="223" y="445" width="60" height="30" as="geometry"/>
                </mxCell>
                <mxCell id="11" value="&lt;h1&gt;&lt;font face=&quot;Times New Roman&quot;&gt;2018&lt;/font&gt;&lt;/h1&gt;" style="text;html=1;align=center;verticalAlign=middle;whiteSpace=wrap;rounded=0;" parent="1" vertex="1">
                    <mxGeometry x="283" y="445" width="60" height="30" as="geometry"/>
                </mxCell>
                <mxCell id="12" value="&lt;h1&gt;&lt;font face=&quot;Times New Roman&quot;&gt;2019&lt;/font&gt;&lt;/h1&gt;" style="text;html=1;align=center;verticalAlign=middle;whiteSpace=wrap;rounded=0;" parent="1" vertex="1">
                    <mxGeometry x="379" y="445" width="60" height="30" as="geometry"/>
                </mxCell>
                <mxCell id="13" value="&lt;h1&gt;&lt;font face=&quot;Times New Roman&quot;&gt;2020&lt;/font&gt;&lt;/h1&gt;" style="text;html=1;align=center;verticalAlign=middle;whiteSpace=wrap;rounded=0;" parent="1" vertex="1">
                    <mxGeometry x="473" y="445" width="60" height="30" as="geometry"/>
                </mxCell>
                <mxCell id="14" value="&lt;h1&gt;&lt;font face=&quot;Times New Roman&quot;&gt;2021&lt;/font&gt;&lt;/h1&gt;" style="text;html=1;align=center;verticalAlign=middle;whiteSpace=wrap;rounded=0;" parent="1" vertex="1">
                    <mxGeometry x="560" y="445" width="60" height="30" as="geometry"/>
                </mxCell>
                <mxCell id="15" value="&lt;h1&gt;&lt;font face=&quot;Times New Roman&quot;&gt;2022&lt;/font&gt;&lt;/h1&gt;" style="text;html=1;align=center;verticalAlign=middle;whiteSpace=wrap;rounded=0;" parent="1" vertex="1">
                    <mxGeometry x="616" y="445" width="60" height="30" as="geometry"/>
                </mxCell>
                <mxCell id="16" value="&lt;h1&gt;&lt;font face=&quot;Times New Roman&quot;&gt;2024&lt;/font&gt;&lt;/h1&gt;" style="text;html=1;align=center;verticalAlign=middle;whiteSpace=wrap;rounded=0;" parent="1" vertex="1">
                    <mxGeometry x="754.06" y="445" width="60" height="30" as="geometry"/>
                </mxCell>
                <mxCell id="17" value="&lt;h1&gt;&lt;font face=&quot;Times New Roman&quot;&gt;2023&lt;/font&gt;&lt;/h1&gt;" style="text;html=1;align=center;verticalAlign=middle;whiteSpace=wrap;rounded=0;" parent="1" vertex="1">
                    <mxGeometry x="672" y="445" width="60" height="30" as="geometry"/>
                </mxCell>
                <mxCell id="19" value="&lt;h1&gt;&lt;font face=&quot;Times New Roman&quot;&gt;2025&lt;/font&gt;&lt;/h1&gt;" style="text;html=1;align=center;verticalAlign=middle;whiteSpace=wrap;rounded=0;" parent="1" vertex="1">
                    <mxGeometry x="837.19" y="445" width="60" height="30" as="geometry"/>
                </mxCell>
                <mxCell id="25" value="&lt;h1&gt;&lt;font face=&quot;Times New Roman&quot;&gt;Tombo&lt;/font&gt;&lt;/h1&gt;" style="text;html=1;align=center;verticalAlign=middle;whiteSpace=wrap;rounded=0;rotation=-90;" parent="1" vertex="1">
                    <mxGeometry x="116" y="364" width="80" height="30" as="geometry"/>
                </mxCell>
                <mxCell id="26" value="&lt;h1&gt;&lt;font face=&quot;Times New Roman&quot;&gt;Epinano&lt;/font&gt;&lt;/h1&gt;" style="text;html=1;align=center;verticalAlign=middle;whiteSpace=wrap;rounded=0;rotation=-90;" parent="1" vertex="1">
                    <mxGeometry x="328" y="536" width="90" height="30" as="geometry"/>
                </mxCell>
                <mxCell id="27" value="&lt;h1&gt;&lt;font face=&quot;Times New Roman&quot;&gt;DiffErr&lt;/font&gt;&lt;/h1&gt;" style="text;html=1;align=center;verticalAlign=middle;whiteSpace=wrap;rounded=0;rotation=-90;" parent="1" vertex="1">
                    <mxGeometry x="366" y="534" width="95" height="30" as="geometry"/>
                </mxCell>
                <mxCell id="28" value="&lt;h1&gt;&lt;font style=&quot;font-size: 23px;&quot; face=&quot;Times New Roman&quot;&gt;DRUMMER&lt;/font&gt;&lt;/h1&gt;" style="text;html=1;align=center;verticalAlign=middle;whiteSpace=wrap;rounded=0;rotation=270;" parent="1" vertex="1">
                    <mxGeometry x="446" y="553" width="95" height="30" as="geometry"/>
                </mxCell>
                <mxCell id="29" value="&lt;h1&gt;&lt;font face=&quot;Times New Roman&quot;&gt;MINES&lt;/font&gt;&lt;/h1&gt;" style="text;html=1;align=center;verticalAlign=middle;whiteSpace=wrap;rounded=0;rotation=-90;" parent="1" vertex="1">
                    <mxGeometry x="355" y="359" width="90" height="30" as="geometry"/>
                </mxCell>
                <mxCell id="30" value="&lt;h1&gt;&lt;font face=&quot;Times New Roman&quot;&gt;xPore&lt;/font&gt;&lt;/h1&gt;" style="text;html=1;align=center;verticalAlign=middle;whiteSpace=wrap;rounded=0;rotation=-90;" parent="1" vertex="1">
                    <mxGeometry x="438" y="368" width="70" height="30" as="geometry"/>
                </mxCell>
                <mxCell id="31" value="&lt;h1&gt;&lt;font face=&quot;Times New Roman&quot;&gt;nanoRMS&lt;/font&gt;&lt;/h1&gt;" style="text;html=1;align=center;verticalAlign=middle;whiteSpace=wrap;rounded=0;rotation=-90;" parent="1" vertex="1">
                    <mxGeometry x="448" y="347" width="117.5" height="30" as="geometry"/>
                </mxCell>
                <mxCell id="32" value="&lt;h1&gt;&lt;font face=&quot;Times New Roman&quot;&gt;CHEUI&lt;/font&gt;&lt;/h1&gt;" style="text;html=1;align=center;verticalAlign=middle;whiteSpace=wrap;rounded=0;rotation=-90;" parent="1" vertex="1">
                    <mxGeometry x="723.06" y="361" width="88.75" height="30" as="geometry"/>
                </mxCell>
                <mxCell id="33" value="&lt;h1&gt;&lt;font face=&quot;Times New Roman&quot;&gt;Uncalled4&lt;/font&gt;&lt;/h1&gt;" style="text;html=1;align=center;verticalAlign=middle;whiteSpace=wrap;rounded=0;rotation=-90;" parent="1" vertex="1">
                    <mxGeometry x="802.0000000000001" y="351" width="104.37" height="30" as="geometry"/>
                </mxCell>
                <mxCell id="36" value="&lt;h1&gt;&lt;font face=&quot;Times New Roman&quot; style=&quot;line-height: 150%; color: rgb(0, 0, 204);&quot;&gt;Signal intensity-based methods&amp;nbsp;&lt;/font&gt;&lt;/h1&gt;" style="text;html=1;align=center;verticalAlign=middle;whiteSpace=wrap;rounded=0;rotation=0;" parent="1" vertex="1">
                    <mxGeometry x="57.5" y="252" width="356" height="50" as="geometry"/>
                </mxCell>
                <mxCell id="37" value="&lt;h1&gt;&lt;font style=&quot;line-height: 150%; color: rgb(153, 0, 77);&quot; face=&quot;Times New Roman&quot;&gt;Basecalling error-based methods&lt;/font&gt;&lt;/h1&gt;" style="text;html=1;align=center;verticalAlign=middle;whiteSpace=wrap;rounded=0;rotation=0;" parent="1" vertex="1">
                    <mxGeometry x="57.5" y="617" width="346" height="50" as="geometry"/>
                </mxCell>
            </root>
        </mxGraphModel>
    </diagram>
</mxfile>